<?xml version="1.0" encoding="utf-8"?>
<svg version="1.0" id="Layer_1" x="0px" y="0px" width="3678.1658" height="1057.4424" viewBox="0 0 3678.1658 1057.4424" enable-background="new 0 0 3347.72 1057.32" xmlns="http://www.w3.org/2000/svg">
  <path d="M 0 354.301 L 349.502 354.301 L 349.502 4.822 L 699.004 4.822 L 699.004 354.301 L 1048.483 354.301 L 1048.483 703.78 L 699.004 703.78 L 699.004 1053.259 L 349.502 1053.259 L 349.502 703.78 L 0 703.78 L 0 354.301 Z" id="path5" style="fill:#e30613"/>
  <path id="path27" d="M 1321.849 382.588 L 1478.025 382.588 C 1529.952 382.588 1562.816 418.709 1562.816 462.514 C 1562.816 496.6 1549.018 522.148 1516.965 535.136 L 1516.965 535.935 C 1548.209 544.056 1557.129 574.482 1559.164 603.691 C 1560.377 621.949 1559.973 656.025 1571.332 672.248 L 1507.64 672.248 C 1499.934 653.99 1500.753 625.994 1497.496 602.873 C 1493.035 572.459 1481.271 559.066 1449.231 559.066 L 1385.54 559.066 L 1385.54 672.248 L 1321.85 672.248 L 1321.85 382.588 Z M 1385.54 513.632 L 1455.309 513.632 C 1483.71 513.632 1499.124 501.464 1499.124 472.241 C 1499.124 444.255 1483.71 432.088 1455.309 432.088 L 1385.54 432.088 L 1385.54 513.632 Z" style="fill: rgb(255, 255, 255);"/>
  <path id="path29" d="M 1705.196 456.828 C 1771.313 456.828 1813.916 500.644 1813.916 567.595 C 1813.916 634.105 1771.313 677.933 1705.196 677.933 C 1639.471 677.933 1596.88 634.105 1596.88 567.595 C 1596.88 500.644 1639.471 456.828 1705.196 456.828 Z M 1705.196 634.52 C 1744.552 634.52 1756.315 600.848 1756.315 567.594 C 1756.315 533.922 1744.552 500.24 1705.196 500.24 C 1666.255 500.24 1654.491 533.923 1654.491 567.594 C 1654.491 600.848 1666.255 634.52 1705.196 634.52 Z" style="fill: rgb(255, 255, 255);"/>
  <path id="path31" d="M 1923.445 462.514 L 1965.632 462.514 L 1965.632 501.061 L 1923.445 501.061 L 1923.445 604.905 C 1923.445 624.374 1928.321 629.239 1947.792 629.239 C 1953.869 629.239 1959.555 628.835 1965.632 627.622 L 1965.632 672.651 C 1955.903 674.268 1943.32 674.684 1931.973 674.684 C 1896.672 674.684 1865.843 666.561 1865.843 624.778 L 1865.843 501.061 L 1830.947 501.061 L 1830.947 462.514 L 1865.843 462.514 L 1865.843 399.631 L 1923.446 399.631 L 1923.446 462.514 Z" style="fill: rgb(255, 255, 255);"/>
  <path id="path33" d="M 2041.894 581.366 C 2043.524 617.891 2061.376 634.52 2093.418 634.52 C 2116.538 634.52 2135.199 620.329 2138.851 607.342 L 2189.566 607.342 C 2173.332 656.832 2138.851 677.932 2091.384 677.932 C 2025.267 677.932 1984.292 632.487 1984.292 567.594 C 1984.292 504.699 2027.693 456.827 2091.384 456.827 C 2162.781 456.827 2197.273 516.878 2193.218 581.365 L 2041.894 581.365 Z M 2135.605 544.866 C 2130.336 515.655 2117.752 500.24 2089.767 500.24 C 2053.252 500.24 2042.703 528.642 2041.894 544.866 L 2135.605 544.866 Z" style="fill: rgb(255, 255, 255);"/>
  <path id="path35" d="M 2271.906 604.096 C 2272.312 629.239 2293.41 639.385 2316.128 639.385 C 2332.767 639.385 2353.867 632.901 2353.867 612.623 C 2353.867 595.164 2329.912 589.074 2288.545 580.164 C 2255.269 572.861 2222.013 561.088 2222.013 524.181 C 2222.013 470.624 2268.256 456.827 2313.274 456.827 C 2359.135 456.827 2401.322 472.241 2405.784 523.765 L 2351.013 523.765 C 2349.407 501.464 2332.365 495.374 2311.669 495.374 C 2298.68 495.374 2279.626 497.812 2279.626 514.845 C 2279.626 535.527 2312.085 538.381 2344.923 546.09 C 2378.607 553.797 2411.468 565.965 2411.468 604.904 C 2411.468 660.078 2363.596 677.931 2315.724 677.931 C 2267.043 677.931 2219.576 659.673 2217.138 604.095 L 2271.906 604.095 Z" style="fill: rgb(255, 255, 255);"/>
  <path id="path37" d="M 1321.041 762.11 L 1384.731 762.11 L 1384.731 882.188 L 1497.912 762.11 L 1577.421 762.11 L 1464.24 876.503 L 1588.374 1051.757 L 1508.449 1051.757 L 1421.233 921.532 L 1384.731 958.45 L 1384.731 1051.757 L 1321.041 1051.757 L 1321.041 762.11 Z" style="fill: rgb(255, 255, 255);"/>
  <path id="path39" d="M 1607.833 842.024 L 1662.605 842.024 L 1662.605 880.975 L 1663.414 880.975 C 1673.963 854.606 1702.365 836.338 1730.352 836.338 C 1734.407 836.338 1739.272 837.158 1742.923 838.383 L 1742.923 891.916 C 1737.652 890.703 1729.138 889.895 1722.238 889.895 C 1680.051 889.895 1665.446 920.331 1665.446 957.237 L 1665.446 1051.757 L 1607.833 1051.757 L 1607.833 842.024 Z" style="fill: rgb(255, 255, 255);"/>
  <path id="path41" d="M 1805.874 960.889 C 1807.491 997.401 1825.355 1014.03 1857.398 1014.03 C 1880.518 1014.03 1899.179 999.841 1902.83 986.864 L 1953.546 986.864 C 1937.311 1036.343 1902.83 1057.442 1855.363 1057.442 C 1789.246 1057.442 1748.271 1012.006 1748.271 947.104 C 1748.271 884.209 1791.673 836.338 1855.363 836.338 C 1926.761 836.338 1961.252 896.389 1957.197 960.889 L 1805.874 960.889 Z M 1899.584 924.375 C 1894.316 895.164 1881.732 879.748 1853.746 879.748 C 1817.231 879.748 1806.683 908.15 1805.874 924.375 L 1899.584 924.375 Z" style="fill: rgb(255, 255, 255);"/>
  <path id="path43" d="M 2184.366 1051.756 L 2129.595 1051.756 L 2129.595 1022.559 L 2128.371 1022.559 C 2113.765 1046.084 2088.622 1057.442 2064.275 1057.442 C 2003.023 1057.442 1987.609 1022.962 1987.609 971.034 L 1987.609 842.024 L 2045.21 842.024 L 2045.21 960.473 C 2045.21 994.963 2055.356 1012.006 2082.128 1012.006 C 2113.361 1012.006 2126.752 994.559 2126.752 951.969 L 2126.752 842.024 L 2184.365 842.024 L 2184.365 1051.756 Z" style="fill: rgb(255, 255, 255);"/>
  <path id="path45" d="M 2215.992 1008.344 L 2325.117 885.436 L 2224.103 885.436 L 2224.103 842.024 L 2400.988 842.024 L 2400.988 885.436 L 2291.85 1008.344 L 2408.683 1008.344 L 2408.683 1051.756 L 2215.992 1051.756 L 2215.992 1008.344 Z" style="fill: rgb(255, 255, 255);"/>
  <path d="M 1318.448 0 L 1435.376 0 C 1458.522 0 1475.782 0.965 1487.156 2.893 C 1498.529 4.822 1508.705 8.846 1517.685 14.965 C 1526.664 21.085 1534.146 29.232 1540.133 39.408 C 1546.119 49.585 1549.112 60.992 1549.112 73.629 C 1549.112 87.331 1545.42 99.901 1538.038 111.341 C 1530.654 122.782 1520.644 131.362 1508.007 137.082 C 1525.832 142.27 1539.534 151.116 1549.112 163.62 C 1558.689 176.124 1563.478 190.823 1563.478 207.717 C 1563.478 221.02 1560.385 233.957 1554.2 246.527 C 1548.014 259.098 1539.567 269.141 1528.859 276.657 C 1518.15 284.173 1504.948 288.796 1489.251 290.525 C 1479.407 291.589 1455.662 292.254 1418.016 292.52 L 1318.448 292.52 Z M 1377.51 48.687 L 1377.51 116.33 L 1416.221 116.33 C 1439.234 116.33 1453.534 115.997 1459.121 115.332 C 1469.231 114.135 1477.179 110.643 1482.965 104.856 C 1488.752 99.07 1491.645 91.454 1491.645 82.009 C 1491.645 72.964 1489.151 65.614 1484.163 59.961 C 1479.174 54.307 1471.758 50.882 1461.914 49.685 C 1456.061 49.02 1439.234 48.687 1411.432 48.687 Z M 1377.51 165.017 L 1377.51 243.235 L 1432.183 243.235 C 1453.467 243.235 1466.969 242.636 1472.689 241.439 C 1481.469 239.843 1488.619 235.952 1494.14 229.766 C 1499.66 223.581 1502.42 215.3 1502.42 204.924 C 1502.42 196.144 1500.292 188.695 1496.035 182.576 C 1491.778 176.457 1485.626 172.001 1477.578 169.207 C 1469.53 166.414 1452.07 165.017 1425.2 165.017 Z" style="font-size: 408.651px; font-style: normal; font-variant-ligatures: normal; font-variant-caps: normal; font-weight: bold; font-stretch: normal; text-align: start; line-height: 125%; letter-spacing: 0px; word-spacing: 0px; writing-mode: lr-tb; text-anchor: start; fill-opacity: 1; stroke: none; font-family: Sans; fill: rgb(255, 255, 255);" id="path3073"/>
  <path d="M 1655.066 145.263 L 1604.184 136.084 C 1609.904 115.598 1619.748 100.434 1633.715 90.59 C 1647.683 80.746 1668.435 75.824 1695.971 75.824 C 1720.979 75.824 1739.602 78.784 1751.841 84.703 C 1764.079 90.623 1772.692 98.139 1777.681 107.251 C 1782.669 116.363 1785.163 133.091 1785.163 157.434 L 1784.565 222.882 C 1784.565 241.506 1785.463 255.24 1787.259 264.087 C 1789.054 272.933 1792.413 282.411 1797.335 292.52 L 1741.864 292.52 C 1740.401 288.796 1738.605 283.275 1736.477 275.959 C 1735.545 272.633 1734.88 270.438 1734.481 269.374 C 1724.903 278.686 1714.66 285.67 1703.753 290.326 C 1692.844 294.981 1681.205 297.309 1668.834 297.309 C 1647.018 297.309 1629.824 291.39 1617.254 279.551 C 1604.683 267.711 1598.397 252.746 1598.397 234.655 C 1598.397 222.683 1601.257 212.008 1606.977 202.629 C 1612.697 193.251 1620.712 186.068 1631.022 181.079 C 1641.331 176.091 1656.196 171.735 1675.618 168.01 C 1701.824 163.088 1719.981 158.499 1730.091 154.242 L 1730.091 148.655 C 1730.091 137.88 1727.431 130.198 1722.11 125.608 C 1716.789 121.019 1706.746 118.724 1691.98 118.724 C 1682.003 118.724 1674.221 120.686 1668.634 124.611 C 1663.047 128.535 1658.524 135.419 1655.066 145.263 Z M 1730.091 190.757 C 1722.908 193.151 1711.534 196.011 1695.971 199.337 C 1680.407 202.663 1670.23 205.922 1665.442 209.114 C 1658.125 214.302 1654.467 220.887 1654.467 228.868 C 1654.467 236.717 1657.394 243.501 1663.247 249.221 C 1669.1 254.941 1676.549 257.801 1685.595 257.801 C 1695.704 257.801 1705.349 254.476 1714.528 247.824 C 1721.312 242.769 1725.768 236.584 1727.896 229.267 C 1729.36 224.479 1730.091 215.366 1730.091 201.931 Z" style="font-size: 408.651px; font-style: normal; font-variant-ligatures: normal; font-variant-caps: normal; font-weight: bold; font-stretch: normal; text-align: start; line-height: 125%; letter-spacing: 0px; word-spacing: 0px; writing-mode: lr-tb; text-anchor: start; fill-opacity: 1; stroke: none; font-family: Sans; fill: rgb(255, 255, 255);" id="path3075"/>
  <path d="M 1814.096 80.613 L 1873.758 80.613 L 1924.44 231.063 L 1973.925 80.613 L 2031.99 80.613 L 1957.164 284.539 L 1943.795 321.453 C 1938.873 333.824 1934.184 343.269 1929.728 349.787 C 1925.271 356.306 1920.15 361.593 1914.363 365.651 C 1908.577 369.708 1901.46 372.867 1893.013 375.129 C 1884.566 377.39 1875.021 378.521 1864.379 378.521 C 1853.604 378.521 1843.029 377.39 1832.653 375.129 L 1827.665 331.231 C 1836.444 332.96 1844.359 333.824 1851.41 333.825 C 1864.446 333.824 1874.09 330 1880.342 322.351 C 1886.594 314.702 1891.383 304.958 1894.709 293.119 Z" style="font-size: 408.651px; font-style: normal; font-variant-ligatures: normal; font-variant-caps: normal; font-weight: bold; font-stretch: normal; text-align: start; line-height: 125%; letter-spacing: 0px; word-spacing: 0px; writing-mode: lr-tb; text-anchor: start; fill-opacity: 1; stroke: none; font-family: Sans; fill: rgb(255, 255, 255);" id="path3077"/>
  <path d="M 2190.821 225.077 L 2246.691 234.455 C 2239.508 254.941 2228.168 270.538 2212.67 281.247 C 2197.173 291.955 2177.785 297.309 2154.506 297.309 C 2117.658 297.309 2090.388 285.271 2072.696 261.193 C 2058.728 241.905 2051.744 217.561 2051.744 188.163 C 2051.744 153.045 2060.923 125.542 2079.28 105.655 C 2097.638 85.768 2120.85 75.824 2148.918 75.824 C 2180.445 75.824 2205.321 86.233 2223.545 107.051 C 2241.769 127.87 2250.482 159.762 2249.684 202.729 L 2109.211 202.729 C 2109.61 219.357 2114.133 232.294 2122.779 241.539 C 2131.426 250.784 2142.201 255.407 2155.104 255.407 C 2163.884 255.407 2171.266 253.012 2177.253 248.223 C 2183.239 243.435 2187.761 235.719 2190.821 225.077 Z M 2194.014 168.409 C 2193.615 152.18 2189.424 139.842 2181.443 131.395 C 2173.461 122.948 2163.751 118.724 2152.311 118.724 C 2140.072 118.724 2129.962 123.181 2121.981 132.093 C 2114 141.006 2110.075 153.111 2110.208 168.409 Z" style="font-size: 408.651px; font-style: normal; font-variant-ligatures: normal; font-variant-caps: normal; font-weight: bold; font-stretch: normal; text-align: start; line-height: 125%; letter-spacing: 0px; word-spacing: 0px; writing-mode: lr-tb; text-anchor: start; fill-opacity: 1; stroke: none; font-family: Sans; fill: rgb(255, 255, 255);" id="path3079"/>
  <path d="M 2349.253 292.52 L 2293.183 292.52 L 2293.183 80.613 L 2345.262 80.613 L 2345.262 110.743 C 2354.175 96.509 2362.19 87.131 2369.307 82.608 C 2376.423 78.085 2384.504 75.824 2393.55 75.824 C 2406.32 75.824 2418.625 79.349 2430.464 86.399 L 2413.105 135.286 C 2403.66 129.167 2394.88 126.107 2386.766 126.107 C 2378.917 126.107 2372.266 128.269 2366.812 132.592 C 2361.358 136.915 2357.068 144.731 2353.942 156.038 C 2350.816 167.345 2349.253 191.023 2349.253 227.073 Z" style="font-size: 408.651px; font-style: normal; font-variant-ligatures: normal; font-variant-caps: normal; font-weight: bold; font-stretch: normal; text-align: start; line-height: 125%; letter-spacing: 0px; word-spacing: 0px; writing-mode: lr-tb; text-anchor: start; fill-opacity: 1; stroke: none; font-family: Sans; fill: rgb(255, 255, 255);" id="path3081"/>
  <path d="M 2454.409 51.879 L 2454.409 0 L 2510.479 0 L 2510.479 51.879 Z M 2454.409 292.52 L 2454.409 80.613 L 2510.479 80.613 L 2510.479 292.52 Z" style="font-size: 408.651px; font-style: normal; font-variant-ligatures: normal; font-variant-caps: normal; font-weight: bold; font-stretch: normal; text-align: start; line-height: 125%; letter-spacing: 0px; word-spacing: 0px; writing-mode: lr-tb; text-anchor: start; fill-opacity: 1; stroke: none; font-family: Sans; fill: rgb(255, 255, 255);" id="path3083"/>
  <path d="M 2547.991 232.061 L 2604.261 223.481 C 2606.655 234.389 2611.51 242.67 2618.827 248.323 C 2626.143 253.977 2636.386 256.803 2649.555 256.803 C 2664.055 256.803 2674.963 254.143 2682.279 248.822 C 2687.201 245.097 2689.662 240.109 2689.662 233.857 C 2689.662 229.6 2688.332 226.075 2685.672 223.281 C 2682.878 220.621 2676.626 218.16 2666.915 215.898 C 2621.687 205.922 2593.02 196.81 2580.915 188.562 C 2564.154 177.122 2555.773 161.226 2555.773 140.873 C 2555.773 122.516 2563.023 107.085 2577.523 94.58 C 2592.022 82.076 2614.503 75.824 2644.966 75.824 C 2673.965 75.824 2695.515 80.546 2709.616 89.991 C 2723.716 99.436 2733.427 113.403 2738.748 131.894 L 2685.871 141.671 C 2683.61 133.424 2679.32 127.105 2673.001 122.715 C 2666.682 118.325 2657.67 116.13 2645.964 116.13 C 2631.198 116.13 2620.623 118.192 2614.238 122.316 C 2609.981 125.243 2607.852 129.034 2607.852 133.689 C 2607.852 137.68 2609.715 141.072 2613.439 143.866 C 2618.494 147.591 2635.954 152.845 2665.818 159.629 C 2695.681 166.414 2716.533 174.728 2728.372 184.571 C 2740.078 194.548 2745.931 208.449 2745.932 226.274 C 2745.931 245.696 2737.817 262.391 2721.588 276.358 C 2705.359 290.326 2681.348 297.309 2649.555 297.309 C 2620.689 297.309 2597.842 291.456 2581.015 279.75 C 2564.187 268.044 2553.179 252.148 2547.991 232.061 Z" style="font-size: 408.651px; font-style: normal; font-variant-ligatures: normal; font-variant-caps: normal; font-weight: bold; font-stretch: normal; text-align: start; line-height: 125%; letter-spacing: 0px; word-spacing: 0px; writing-mode: lr-tb; text-anchor: start; fill-opacity: 1; stroke: none; font-family: Sans; fill: rgb(255, 255, 255);" id="path3085"/>
  <path d="M 2979.988 143.267 L 2924.716 153.244 C 2922.854 142.203 2918.63 133.889 2912.046 128.302 C 2905.461 122.715 2896.914 119.922 2886.405 119.921 C 2872.438 119.922 2861.297 124.744 2852.983 134.388 C 2844.669 144.032 2840.512 160.161 2840.512 182.775 C 2840.512 207.917 2844.735 225.676 2853.183 236.052 C 2861.629 246.428 2872.97 251.616 2887.204 251.616 C 2897.845 251.616 2906.558 248.589 2913.343 242.537 C 2920.127 236.484 2924.916 226.075 2927.709 211.309 L 2982.781 220.687 C 2977.061 245.962 2966.087 265.051 2949.858 277.954 C 2933.629 290.858 2911.879 297.309 2884.61 297.309 C 2853.615 297.309 2828.906 287.532 2810.482 267.977 C 2792.058 248.423 2782.846 221.353 2782.846 186.766 C 2782.846 151.781 2792.091 124.544 2810.581 105.056 C 2829.072 85.568 2854.08 75.824 2885.607 75.824 C 2911.414 75.824 2931.933 81.378 2947.164 92.485 C 2962.395 103.593 2973.337 120.52 2979.988 143.267 Z" style="font-size: 408.651px; font-style: normal; font-variant-ligatures: normal; font-variant-caps: normal; font-weight: bold; font-stretch: normal; text-align: start; line-height: 125%; letter-spacing: 0px; word-spacing: 0px; writing-mode: lr-tb; text-anchor: start; fill-opacity: 1; stroke: none; font-family: Sans; fill: rgb(255, 255, 255);" id="path3087"/>
  <path d="M 3078.559 0 L 3078.559 107.55 C 3096.65 86.399 3118.267 75.824 3143.408 75.824 C 3156.312 75.824 3167.951 78.219 3178.327 83.007 C 3188.703 87.796 3196.518 93.915 3201.773 101.365 C 3207.027 108.814 3210.619 117.062 3212.548 126.107 C 3214.476 135.153 3215.441 149.187 3215.441 168.209 L 3215.441 292.52 L 3159.371 292.52 L 3159.371 180.581 C 3159.371 158.366 3158.307 144.265 3156.179 138.279 C 3154.05 132.293 3150.292 127.537 3144.905 124.012 C 3139.517 120.487 3132.766 118.724 3124.652 118.724 C 3115.34 118.724 3107.026 120.986 3099.71 125.508 C 3092.393 130.031 3087.039 136.849 3083.647 145.961 C 3080.255 155.073 3078.559 168.542 3078.559 186.367 L 3078.559 292.52 L 3022.489 292.52 L 3022.489 0 Z" style="font-size: 408.651px; font-style: normal; font-variant-ligatures: normal; font-variant-caps: normal; font-weight: bold; font-stretch: normal; text-align: start; line-height: 125%; letter-spacing: 0px; word-spacing: 0px; writing-mode: lr-tb; text-anchor: start; fill-opacity: 1; stroke: none; font-family: Sans; fill: rgb(255, 255, 255);" id="path3089"/>
  <path d="M 3395.223 225.077 L 3451.094 234.455 C 3443.91 254.941 3432.57 270.538 3417.073 281.247 C 3401.575 291.955 3382.187 297.309 3358.908 297.309 C 3322.06 297.309 3294.79 285.271 3277.098 261.193 C 3263.13 241.905 3256.146 217.561 3256.146 188.163 C 3256.146 153.045 3265.325 125.542 3283.682 105.655 C 3302.04 85.768 3325.253 75.824 3353.321 75.824 C 3384.847 75.824 3409.723 86.233 3427.947 107.051 C 3446.171 127.87 3454.885 159.762 3454.087 202.729 L 3313.613 202.729 C 3314.012 219.357 3318.535 232.294 3327.181 241.539 C 3335.828 250.784 3346.603 255.407 3359.506 255.407 C 3368.286 255.407 3375.669 253.012 3381.655 248.223 C 3387.641 243.435 3392.164 235.719 3395.223 225.077 Z M 3398.416 168.409 C 3398.017 152.18 3393.826 139.842 3385.845 131.395 C 3377.864 122.948 3368.153 118.724 3356.713 118.724 C 3344.474 118.724 3334.365 123.181 3326.383 132.093 C 3318.402 141.006 3314.478 153.111 3314.611 168.409 Z" style="font-size: 408.651px; font-style: normal; font-variant-ligatures: normal; font-variant-caps: normal; font-weight: bold; font-stretch: normal; text-align: start; line-height: 125%; letter-spacing: 0px; word-spacing: 0px; writing-mode: lr-tb; text-anchor: start; fill-opacity: 1; stroke: none; font-family: Sans; fill: rgb(255, 255, 255);" id="path3091"/>
  <path d="M 3480.226 232.061 L 3536.495 223.481 C 3538.889 234.389 3543.745 242.67 3551.061 248.323 C 3558.377 253.977 3568.62 256.803 3581.79 256.803 C 3596.289 256.803 3607.197 254.143 3614.514 248.822 C 3619.436 245.097 3621.897 240.109 3621.897 233.857 C 3621.897 229.6 3620.566 226.075 3617.906 223.281 C 3615.112 220.621 3608.86 218.16 3599.15 215.898 C 3553.921 205.922 3525.254 196.81 3513.149 188.562 C 3496.388 177.122 3488.008 161.226 3488.008 140.873 C 3488.008 122.516 3495.257 107.085 3509.757 94.58 C 3524.257 82.076 3546.738 75.824 3577.2 75.824 C 3606.2 75.824 3627.75 80.546 3641.85 89.991 C 3655.951 99.436 3665.661 113.403 3670.983 131.894 L 3618.105 141.671 C 3615.844 133.424 3611.554 127.105 3605.235 122.715 C 3598.917 118.325 3589.904 116.13 3578.198 116.13 C 3563.432 116.13 3552.857 118.192 3546.472 122.316 C 3542.215 125.243 3540.087 129.034 3540.087 133.689 C 3540.087 137.68 3541.949 141.072 3545.674 143.866 C 3550.729 147.591 3568.188 152.845 3598.052 159.629 C 3627.916 166.414 3648.767 174.728 3660.607 184.571 C 3672.313 194.548 3678.166 208.449 3678.166 226.274 C 3678.166 245.696 3670.051 262.391 3653.823 276.358 C 3637.593 290.326 3613.583 297.309 3581.79 297.309 C 3552.923 297.309 3530.077 291.456 3513.249 279.75 C 3496.421 268.044 3485.414 252.148 3480.226 232.061 Z" style="font-size: 408.651px; font-style: normal; font-variant-ligatures: normal; font-variant-caps: normal; font-weight: bold; font-stretch: normal; text-align: start; line-height: 125%; letter-spacing: 0px; word-spacing: 0px; writing-mode: lr-tb; text-anchor: start; fill-opacity: 1; stroke: none; font-family: Sans; fill: rgb(255, 255, 255);" id="path3093"/>
</svg>